<svg xmlns="http://www.w3.org/2000/svg" id="Calque_1" viewBox="0 0 80 80">
  <defs fill="#000000">
    <style>.cls-1{fill:none;}.cls-2{fill:#f7f8fa;fill-rule:evenodd;}</style>
  </defs>
  <rect class="cls-1" width="80" height="80" fill="#000000"/>
  <rect class="cls-1" width="80" height="80" fill="#000000"/>
  <path id="SEO_Training" class="cls-2" d="M17,19.84h21.7v-3.22h3.22v3.22h21.7c.75,0,1.38,.63,1.38,1.38v29.27c0,.75-.63,1.38-1.38,1.38h-18.93l5.24,9.07h-3.72l-4.29-7.44v9.07h-3.22v-9.07l-4.3,7.44h-3.72l5.24-9.07h-11.36l-5.33,5.8s-.05,.05-.08,.08c-.6,.6-1.54,.6-2.14,0s-.6-1.54,0-2.14c.03-.03,.05-.05,.08-.08l4-3.67h-4.1c-.74,0-1.38-.62-1.38-1.38V21.2c0-.76,.62-1.38,1.38-1.38h0Zm14.67,22.33c.26-.26,.7-.26,.96,0s.26,.7,0,.96l-5.09,5.54H61.22c.3,0,.55-.26,.55-.55V23.59c0-.29-.25-.55-.55-.55H19.39c-.3,0-.55,.25-.55,.55v24.48c0,.3,.26,.55,.55,.55h5.2l7.08-6.5h0v.02h0Z" fill="#000000"/>
  <rect class="cls-1" width="80" height="80" fill="#000000"/>
</svg>